<svg xmlns="http://www.w3.org/2000/svg" width="23.015" height="23.02" viewBox="0 0 23.015 23.02">
  <g id="Group_53" data-name="Group 53" transform="translate(-563 -615)">
    <g id="Group_50" data-name="Group 50" transform="translate(563 615)">
      <path id="Path_15" data-name="Path 15" d="M118.667,214.765c-.4-.065-.812-.115-1.213-.2a13.309,13.309,0,0,1-3.971-1.614,27.858,27.858,0,0,1-5-3.857,37.547,37.547,0,0,1-3.835-4.154,17.783,17.783,0,0,1-3.167-5.616c-.206-.659-.293-1.355-.435-2.034-.013-.064-.029-.128-.044-.193v-1.034c.072-.411.129-.825.22-1.231a2.541,2.541,0,0,1,1.142-1.632c.675-.431,1.362-.843,2.056-1.243a1.322,1.322,0,0,1,1.855.422q1.554,2.3,3.078,4.616a1.336,1.336,0,0,1-.317,1.862c-.526.421-1.063.83-1.594,1.244a.637.637,0,0,0-.2.953,14.555,14.555,0,0,0,2.428,3.329,23.3,23.3,0,0,0,3.7,3.333c.456.312.943.58,1.426.85a.592.592,0,0,0,.844-.205c.411-.525.817-1.053,1.229-1.578a1.367,1.367,0,0,1,1.981-.325q2.236,1.485,4.467,2.978a1.364,1.364,0,0,1,.442,2.005c-.319.533-.661,1.054-.956,1.6a3.045,3.045,0,0,1-2.456,1.632c-.2.025-.4.06-.6.091Zm.8-.767c.184-.02.513-.048.839-.093a2.282,2.282,0,0,0,1.794-1.194c.319-.576.676-1.13,1.012-1.7a.611.611,0,0,0-.212-.923q-2.231-1.491-4.465-2.978a.625.625,0,0,0-.986.163c-.411.525-.816,1.054-1.229,1.577a1.347,1.347,0,0,1-1.818.381c-.356-.191-.709-.389-1.052-.6a18.992,18.992,0,0,1-3.308-2.753,17.968,17.968,0,0,1-3.5-4.477,1.378,1.378,0,0,1,.4-1.887c.519-.405,1.041-.808,1.559-1.215a.617.617,0,0,0,.16-.954q-1.491-2.245-2.987-4.486a.611.611,0,0,0-.924-.211c-.6.36-1.206.724-1.81,1.085a2.014,2.014,0,0,0-.971,1.239,6.608,6.608,0,0,0-.165.9,7.507,7.507,0,0,0,.337,3.058,15.271,15.271,0,0,0,2.318,4.486,36.335,36.335,0,0,0,6.141,6.531,19.747,19.747,0,0,0,5.21,3.309A9.159,9.159,0,0,0,119.47,214Z" transform="translate(-101 -191.746)" fill="#1b3d6e"/>
      <path id="Path_16" data-name="Path 16" d="M326.8,246.568a7.261,7.261,0,0,1,6.7,5.616,11.944,11.944,0,0,1,.192,1.578.379.379,0,0,1-.357.454c-.219.011-.37-.159-.406-.422a13.017,13.017,0,0,0-.271-1.768,6.309,6.309,0,0,0-3.224-3.96,6.123,6.123,0,0,0-2.75-.734,2.268,2.268,0,0,1-.335-.033.343.343,0,0,1-.306-.358.33.33,0,0,1,.289-.368A3.092,3.092,0,0,1,326.8,246.568Z" transform="translate(-313.37 -243.474)" fill="#1b3d6e"/>
      <path id="Path_17" data-name="Path 17" d="M326.635,287.319a5,5,0,0,1,4.724,4.889c0,.282-.141.464-.371.471s-.378-.167-.394-.453a4.173,4.173,0,0,0-2.483-3.766,3.729,3.729,0,0,0-1.494-.367,2.024,2.024,0,0,1-.29-.029.361.361,0,0,1-.324-.389.365.365,0,0,1,.363-.355C326.455,287.313,326.545,287.319,326.635,287.319Z" transform="translate(-313.334 -281.936)" fill="#1b3d6e"/>
      <path id="Path_18" data-name="Path 18" d="M326.513,328.2a2.694,2.694,0,0,1,2.561,2.585c.006.27-.125.448-.347.472a.387.387,0,0,1-.414-.4,1.983,1.983,0,0,0-.724-1.464,1.883,1.883,0,0,0-1.024-.417,1.947,1.947,0,0,1-.223-.025.376.376,0,0,1,.059-.749C326.438,328.2,326.476,328.2,326.513,328.2Z" transform="translate(-313.348 -320.518)" fill="#1b3d6e"/>
    </g>
  </g>
</svg>
