<svg width="512" height="513" viewBox="0 0 512 513" fill="none" xmlns="http://www.w3.org/2000/svg">
<path d="M502.715 326.083C493.75 319.665 481.279 321.729 474.862 330.695L376.462 468.142C373.775 471.258 370.407 471.931 368.603 472.051C366.747 472.174 363.191 471.939 360.054 469L296.459 406.939C288.569 399.239 275.929 399.393 268.229 407.284C260.529 415.175 260.684 427.813 268.574 435.514L332.278 497.681C332.337 497.738 332.397 497.796 332.457 497.853C342.008 506.945 354.756 512.002 367.872 512.002C368.999 512.002 370.131 511.965 371.261 511.889C385.549 510.937 398.887 503.989 407.857 492.826C408.089 492.537 408.312 492.243 408.528 491.942L507.328 353.936C513.745 344.971 511.681 332.501 502.715 326.083Z" fill="black"/>
<path d="M250.245 271.399C251.999 271.467 253.759 271.501 255.529 271.501C257.302 271.501 259.066 271.467 260.822 271.399C312.14 272.632 361.416 291.761 400.098 325.578C408.4 332.835 421.011 331.988 428.267 323.687C435.524 315.386 434.677 302.775 426.376 295.518C400.023 272.479 369.513 255.209 336.781 244.432C369.845 219.65 391.277 180.155 391.277 135.749C391.278 60.897 330.382 0 255.528 0C180.674 0 119.778 60.897 119.778 135.75C119.778 180.173 141.226 219.68 174.312 244.461C143.999 254.441 115.556 269.969 90.6622 290.444C45.0142 327.992 13.2762 380.364 1.29515 437.915C-2.45985 455.948 2.03915 474.47 13.6352 488.73C25.1752 502.921 42.2862 511.059 60.5822 511.059H236.565C247.591 511.059 256.528 502.121 256.528 491.096C256.528 480.071 247.589 471.133 236.565 471.133H60.5812C52.0592 471.133 46.9172 466.376 44.6112 463.541C40.6292 458.645 39.0882 452.272 40.3832 446.054C61.1012 346.541 148.879 273.849 250.245 271.399ZM159.706 135.751C159.706 82.913 202.692 39.927 255.53 39.927C308.368 39.927 351.354 82.913 351.354 135.751C351.354 186.966 310.968 228.924 260.371 231.454C258.759 231.424 257.146 231.409 255.531 231.409C253.922 231.409 252.314 231.425 250.708 231.455C200.101 228.933 159.706 186.971 159.706 135.751Z" fill="black"/>
</svg>
